<?xml version="1.0" encoding="utf-8"?>
<!-- Generator: Adobe Illustrator 12.0.0, SVG Export Plug-In . SVG Version: 6.00 Build 51448)  -->
<!DOCTYPE svg PUBLIC "-//W3C//DTD SVG 1.1//EN" "http://www.w3.org/Graphics/SVG/1.1/DTD/svg11.dtd" [
	<!ENTITY ns_svg "http://www.w3.org/2000/svg">
	<!ENTITY ns_xlink "http://www.w3.org/1999/xlink">
]>
<svg  version="1.1" id="Layer_1" xmlns="&ns_svg;" xmlns:xlink="&ns_xlink;" width="29.834" height="29.834"
	 viewBox="0 0 29.834 29.834" overflow="visible" enable-background="new 0 0 29.834 29.834" xml:space="preserve">
<g>
	<path fill="#ffffff" d="M0.732,4.268l24.834,24.834l0,0c0.977,0.977,2.559,0.977,3.535,0s0.977-2.559,0-3.535l0,0L4.268,0.732l0,0
		c-0.976-0.977-2.559-0.977-3.535,0C-0.244,1.708-0.244,3.292,0.732,4.268L0.732,4.268z"/>
</g>
<g>
	<path fill="#ffffff" d="M4.268,29.102L29.102,4.268l0,0c0.977-0.976,0.977-2.559,0-3.535c-0.977-0.977-2.559-0.977-3.535,0l0,0
		L0.732,25.566l0,0c-0.977,0.977-0.977,2.559,0,3.535C1.708,30.078,3.292,30.078,4.268,29.102L4.268,29.102z"/>
</g>
</svg>
